<svg xmlns="http://www.w3.org/2000/svg" xmlns:svg="http://www.w3.org/2000/svg" xmlns:xlink="http://www.w3.org/1999/xlink" version="1.0" height="382.3225pt" width="670pt" viewBox="445 176 678 388.3225"><defs><style type="text/css">
        @font-face {
            font-family: 'lt_bold';
            src: url('https://app.creately.com/diagram/assets/fonts/lato/lt-bold-webfont.woff2') format('woff2'),
                url('https://app.creately.com/diagram/assets/fonts/lato/lt-bold-webfont.woff') format('woff');
            font-weight: normal;
            font-style: normal;
        }
        @font-face {
            font-family: 'lt_bold_italic';
            src: url('https://app.creately.com/diagram/assets/fonts/lato/lt-bolditalic-webfont.woff2') format('woff2'),
                url('https://app.creately.com/diagram/assets/fonts/lato/lt-bolditalic-webfont.woff') format('woff');
            font-weight: normal;
            font-style: normal;
        }
        @font-face {
            font-family: 'lt_italic';
            src: url('https://app.creately.com/diagram/assets/fonts/lato/lt-italic-webfont.woff2') format('woff2'),
                url('https://app.creately.com/diagram/assets/fonts/lato/lt-italic-webfont.woff') format('woff');
            font-weight: normal;
            font-style: normal;
        }
        @font-face {
            font-family: 'lt_regular';
            src: url('https://app.creately.com/diagram/assets/fonts/lato/lt-regular-webfont.woff2') format('woff2'),
                url('https://app.creately.com/diagram/assets/fonts/lato/lt-regular-webfont.woff') format('woff');
            font-weight: normal;
            font-style: normal;
        }
        @font-face {
            font-family: 'lt-hairline';
            src: url('https://app.creately.com/diagram/assets/fonts/embed/lt-hairline-webfont.woff2') format('woff2'),
                url('https://app.creately.com/diagram/assets/fonts/embed/lt-hairline-webfont.woff') format('woff');
            font-weight: normal;
            font-style: normal;
        }
        @font-face {
            font-family: 'lt-thinitalic';
            src: url('https://app.creately.com/diagram/assets/fonts/embed/lt-thinitalic-webfont.woff2') format('woff2'),
                url('https://app.creately.com/diagram/assets/fonts/embed/lt-thinitalic-webfont.woff') format('woff');
            font-weight: normal;
            font-style: normal;
        }
        @font-face {
            font-family: 'champagne';
            src: url('https://app.creately.com/diagram/assets/fonts/embed/champagne-webfont.woff2') format('woff2'),
                url('https://app.creately.com/diagram/assets/fonts/embed/champagne-webfont.woff') format('woff');
            font-weight: normal;
            font-style: normal;
        }
        @font-face {
            font-family: 'indie';
            src: url('https://app.creately.com/diagram/assets/fonts/embed/indie-flower-webfont.woff2') format('woff2'),
                url('https://app.creately.com/diagram/assets/fonts/embed/indie-flower-webfont.woff') format('woff');
            font-weight: normal;
            font-style: normal;
        }
        @font-face {
            font-family: 'bebas';
            src: url('https://app.creately.com/diagram/assets/fonts/embed/bebasneue_regular-webfont.woff2') format('woff2'),
                url('https://app.creately.com/diagram/assets/fonts/embed/bebasneue_regular-webfont.woff') format('woff');
            font-weight: normal;
            font-style: normal;
        }
        @font-face {
            font-family: 'bree';
            src: url('https://app.creately.com/diagram/assets/fonts/embed/breeserif-regular-webfont.woff2') format('woff2'),
                url('https://app.creately.com/diagram/assets/fonts/embed/breeserif-regular-webfont.woff') format('woff');
            font-weight: normal;
            font-style: normal;
        }
        @font-face {
            font-family: 'spartan';
            src: url('https://app.creately.com/diagram/assets/fonts/embed/leaguespartan-bold-webfont.woff2') format('woff2'),
                url('https://app.creately.com/diagram/assets/fonts/embed/leaguespartan-bold-webfont.woff') format('woff');
            font-weight: normal;
            font-style: normal;
        }
        @font-face {
            font-family: 'montserrat';
            src: url('https://app.creately.com/diagram/assets/fonts/embed/montserrat-medium-webfont.woff2') format('woff2'),
                url('https://app.creately.com/diagram/assets/fonts/embed/montserrat-medium-webfont.woff') format('woff');
            font-weight: normal;
            font-style: normal;
        }
        @font-face {
            font-family: 'open_sanscondensed';
            src: url('https://app.creately.com/diagram/assets/fonts/embed/opensans-condlight-webfont.woff2') format('woff2'),
                url('https://app.creately.com/diagram/assets/fonts/embed/opensans-condlight-webfont.woff') format('woff');
            font-weight: normal;
            font-style: normal;
        }
        @font-face {
            font-family: 'open_sansitalic';
            src: url('https://app.creately.com/diagram/assets/fonts/embed/opensans-italic-webfont.woff2') format('woff2'),
                url('https://app.creately.com/diagram/assets/fonts/embed/opensans-italic-webfont.woff') format('woff');
            font-weight: normal;
            font-style: normal;
        }
        @font-face {
            font-family: 'playfair';
            src: url('https://app.creately.com/diagram/assets/fonts/embed/playfairdisplay-regular-webfont.woff2') format('woff2'),
                url('https://app.creately.com/diagram/assets/fonts/embed/playfairdisplay-regular-webfont.woff') format('woff');
            font-weight: normal;
            font-style: normal;
        }
        @font-face {
            font-family: 'raleway';
            src: url('https://app.creately.com/diagram/assets/fonts/embed/raleway-regular-webfont.woff2') format('woff2'),
                url('https://app.creately.com/diagram/assets/fonts/embed/raleway-regular-webfont.woff') format('woff');
            font-weight: normal;
            font-style: normal;
        }
        @font-face {
            font-family: 'courier_prime';
            src: url('https://app.creately.com/diagram/assets/fonts/embed/courier_prime-webfont.woff2') format('woff2'),
                url('https://app.creately.com/diagram/assets/fonts/embed/courier_prime-webfont.woff') format('woff');
            font-weight: normal;
            font-style: normal;
        }
        @font-face {
            font-family: 'droid_serifregular';
            src: url('https://app.creately.com/diagram/assets/fonts/embed/droid-serif-regular-webfont.woff') format('woff');
            font-weight: normal;
            font-style: normal;
        }
        @font-face {
            font-family: 'abhaya_libreregular';
            src: url('https://app.creately.com/diagram/assets/fonts/embed/abhaya-libre-regular-webfont.woff') format('woff');
            font-weight: normal;
            font-style: normal;
        }
        @font-face {
            font-family: 'gandhi_serifregular';
            src: url('https://app.creately.com/diagram/assets/fonts/embed/gandhi-serif-regular-webfont.woff') format('woff');
            font-weight: normal;
            font-style: normal;
        }
        @font-face {
            font-family: 'noto_bold';
            src: url('https://app.creately.com/diagram/assets/fonts/noto/noto-bold.woff') format('woff'),
                 url('https://app.creately.com/diagram/assets/fonts/noto/noto-bold.woff2') format('woff2');
            font-weight: normal;
            font-style: normal;
        }
        @font-face {
            font-family: 'noto_bolditalic';
            src: url('https://app.creately.com/diagram/assets/fonts/noto/noto-bolditalic.woff') format('woff'),
                 url('https://app.creately.com/diagram/assets/fonts/noto/noto-bolditalic.woff2') format('woff2');
            font-weight: normal;
            font-style: normal;
        }
        @font-face {
            font-family: 'noto_italic';
            src: url('https://app.creately.com/diagram/assets/fonts/noto/noto-italic.woff') format('woff'),
                 url('https://app.creately.com/diagram/assets/fonts/noto/noto-italic.woff2') format('woff2');
            font-weight: normal;
            font-style: normal;
        }
        @font-face {
            font-family: 'noto_regular';
            src: url('https://app.creately.com/diagram/assets/fonts/noto/noto-regular.woff') format('woff'),
                 url('https://app.creately.com/diagram/assets/fonts/noto/noto-regular.woff2') format('woff2');
            font-weight: normal;
            font-style: normal;
        }
        p {
            margin: 0;
        }
        </style></defs><defs><style>
            span{ display: inline-block; }
        </style></defs><g id="SRttfiFzcwl"><g transform="translate(450 280)"><rect x="0" y="0" width="53.57" height="80" fill="rgba(255,255,255,0.01)" stroke="rgba(255,255,255,0.01)"  stroke-dasharray="0 0"/><path d="M 11.11,48.21 L 0.41,48.21 L 0.41,80 L 11.11,80" fill="rgb(2, 112, 159)" stroke="rgba(255,255,255,0.01)"  stroke-dasharray="0 0"/><path d="M 11.11,48.21 L 0.41,48.21 L 0.41,80 L 11.11,80" fill="none" stroke="rgb(255, 255, 255)" stroke-width="0.42" stroke-miterlimit="10" stroke-dasharray="0 0"/><path d="M 11.11,80 L 16.99,74.12 L 16.99,42.34 L 6.29,42.34 L 0.41,48.21 L 11.11,48.21 L 11.11,80" fill="rgb(2, 112, 159)"  stroke-width="0.42" stroke-miterlimit="10" stroke-dasharray="0 0"/><path d="M 11.11,80 L 16.99,74.12 L 16.99,42.34 L 6.29,42.34 L 0.41,48.21 L 11.11,48.21 L 11.11,80" fill="none" stroke="rgb(255, 255, 255)" stroke-width="0.42" stroke-miterlimit="10" stroke-dasharray="0 0"/><path d="M 11.11,48.21 L 16.99,42.34" fill="none"  stroke-width="0.42" stroke-miterlimit="10" stroke-dasharray="0 0"/><path d="M 11.11,48.21 L 16.99,42.34" fill="none" stroke="rgb(255, 255, 255)" stroke-width="0.42" stroke-miterlimit="10" stroke-dasharray="0 0"/><path d="M 32.81,8.81 L 11.11,8.81 L 11.11,80 L 32.81,80" fill="rgb(2, 112, 159)"  stroke-width="0.42" stroke-miterlimit="10" stroke-dasharray="0 0"/><path d="M 32.81,8.81 L 11.11,8.81 L 11.11,80 L 32.81,80" fill="none" stroke="rgb(255, 255, 255)" stroke-width="0.42" stroke-miterlimit="10" stroke-dasharray="0 0"/><path d="M 32.81,80 L 41.62,71.18 L 41.62,0 L 19.92,0 L 11.11,8.81 L 32.81,8.81 L 32.81,80" fill="rgb(2, 112, 159)"  stroke-width="0.42" stroke-miterlimit="10" stroke-dasharray="0 0"/><path d="M 32.81,80 L 41.62,71.18 L 41.62,0 L 19.92,0 L 11.11,8.81 L 32.81,8.81 L 32.81,80" fill="none" stroke="rgb(255, 255, 255)" stroke-width="0.42" stroke-miterlimit="10" stroke-dasharray="0 0"/><path d="M 32.81,8.81 L 41.62,0" fill="none"  stroke-width="0.42" stroke-miterlimit="10" stroke-dasharray="0 0"/><path d="M 32.81,8.81 L 41.62,0" fill="none" stroke="rgb(255, 255, 255)" stroke-width="0.42" stroke-miterlimit="10" stroke-dasharray="0 0"/><path d="M 44.78,20.03 L 32.96,20.03 L 32.96,80 L 44.78,80" fill="rgb(2, 112, 159)"  stroke-width="0.42" stroke-miterlimit="10" stroke-dasharray="0 0"/><path d="M 44.78,20.03 L 32.96,20.03 L 32.96,80 L 44.78,80" fill="none" stroke="rgb(255, 255, 255)" stroke-width="0.42" stroke-miterlimit="10" stroke-dasharray="0 0"/><path d="M 44.78,80 L 53.45,71.33 L 53.45,11.37 L 41.62,11.37 L 32.96,20.03 L 44.78,20.03 L 44.78,80" fill="rgb(2, 112, 159)"  stroke-width="0.42" stroke-miterlimit="10" stroke-dasharray="0 0"/><path d="M 44.78,80 L 53.45,71.33 L 53.45,11.37 L 41.62,11.37 L 32.96,20.03 L 44.78,20.03 L 44.78,80" fill="none" stroke="rgb(255, 255, 255)" stroke-width="0.42" stroke-miterlimit="10" stroke-dasharray="0 0"/><path d="M 44.78,20.03 L 53.45,11.37" fill="none"  stroke-width="0.42" stroke-miterlimit="10" stroke-dasharray="0 0"/><path d="M 44.78,20.03 L 53.45,11.37" fill="none" stroke="rgb(255, 255, 255)" stroke-width="0.42" stroke-miterlimit="10" stroke-dasharray="0 0"/><path d="M 22.41,38.05 L 22.41,41.36 L 25.72,41.36" fill="rgb(2, 112, 159)"  stroke-width="0.42" stroke-miterlimit="10" stroke-dasharray="0 0"/><path d="M 22.41,38.05 L 22.41,41.36 L 25.72,41.36" fill="none" stroke="rgb(255, 255, 255)" stroke-width="0.42" stroke-miterlimit="10" stroke-dasharray="0 0"/><path d="M 27.01,38.05 L 27.01,41.36 L 30.32,41.36" fill="rgb(2, 112, 159)"  stroke-width="0.42" stroke-miterlimit="10" stroke-dasharray="0 0"/><path d="M 27.01,38.05 L 27.01,41.36 L 30.32,41.36" fill="none" stroke="rgb(255, 255, 255)" stroke-width="0.42" stroke-miterlimit="10" stroke-dasharray="0 0"/><path d="M 13.07,38.11 L 13.07,41.42 L 16.38,41.42" fill="rgb(2, 112, 159)"  stroke-width="0.42" stroke-miterlimit="10" stroke-dasharray="0 0"/><path d="M 13.07,38.11 L 13.07,41.42 L 16.38,41.42" fill="none" stroke="rgb(255, 255, 255)" stroke-width="0.42" stroke-miterlimit="10" stroke-dasharray="0 0"/><path d="M 17.74,38.11 L 17.74,41.42 L 21.05,41.42" fill="rgb(2, 112, 159)"  stroke-width="0.42" stroke-miterlimit="10" stroke-dasharray="0 0"/><path d="M 17.74,38.11 L 17.74,41.42 L 21.05,41.42" fill="none" stroke="rgb(255, 255, 255)" stroke-width="0.42" stroke-miterlimit="10" stroke-dasharray="0 0"/><path d="M 22.33,44.96 L 22.33,48.28 L 25.65,48.28" fill="rgb(2, 112, 159)"  stroke-width="0.42" stroke-miterlimit="10" stroke-dasharray="0 0"/><path d="M 22.33,44.96 L 22.33,48.28 L 25.65,48.28" fill="none" stroke="rgb(255, 255, 255)" stroke-width="0.42" stroke-miterlimit="10" stroke-dasharray="0 0"/><path d="M 27.01,44.96 L 27.01,48.28 L 30.32,48.28" fill="rgb(2, 112, 159)"  stroke-width="0.42" stroke-miterlimit="10" stroke-dasharray="0 0"/><path d="M 27.01,44.96 L 27.01,48.28 L 30.32,48.28" fill="none" stroke="rgb(255, 255, 255)" stroke-width="0.42" stroke-miterlimit="10" stroke-dasharray="0 0"/><path d="M 13.07,45.04 L 13.07,48.35 L 16.38,48.35" fill="rgb(2, 112, 159)"  stroke-width="0.42" stroke-miterlimit="10" stroke-dasharray="0 0"/><path d="M 13.07,45.04 L 13.07,48.35 L 16.38,48.35" fill="none" stroke="rgb(255, 255, 255)" stroke-width="0.42" stroke-miterlimit="10" stroke-dasharray="0 0"/><path d="M 17.66,45.04 L 17.66,48.35 L 20.98,48.35" fill="rgb(2, 112, 159)"  stroke-width="0.42" stroke-miterlimit="10" stroke-dasharray="0 0"/><path d="M 17.66,45.04 L 17.66,48.35 L 20.98,48.35" fill="none" stroke="rgb(255, 255, 255)" stroke-width="0.42" stroke-miterlimit="10" stroke-dasharray="0 0"/><path d="M 22.33,51.6 L 22.33,54.92 L 25.65,54.92" fill="rgb(2, 112, 159)"  stroke-width="0.42" stroke-miterlimit="10" stroke-dasharray="0 0"/><path d="M 22.33,51.6 L 22.33,54.92 L 25.65,54.92" fill="none" stroke="rgb(255, 255, 255)" stroke-width="0.42" stroke-miterlimit="10" stroke-dasharray="0 0"/><path d="M 27.01,51.6 L 27.01,54.92 L 30.32,54.92" fill="rgb(2, 112, 159)"  stroke-width="0.42" stroke-miterlimit="10" stroke-dasharray="0 0"/><path d="M 27.01,51.6 L 27.01,54.92 L 30.32,54.92" fill="none" stroke="rgb(255, 255, 255)" stroke-width="0.42" stroke-miterlimit="10" stroke-dasharray="0 0"/><path d="M 13.07,51.67 L 13.07,54.99 L 16.38,54.99" fill="rgb(2, 112, 159)"  stroke-width="0.42" stroke-miterlimit="10" stroke-dasharray="0 0"/><path d="M 13.07,51.67 L 13.07,54.99 L 16.38,54.99" fill="none" stroke="rgb(255, 255, 255)" stroke-width="0.42" stroke-miterlimit="10" stroke-dasharray="0 0"/><path d="M 17.66,51.67 L 17.66,54.99 L 20.98,54.99" fill="rgb(2, 112, 159)"  stroke-width="0.42" stroke-miterlimit="10" stroke-dasharray="0 0"/><path d="M 17.66,51.67 L 17.66,54.99 L 20.98,54.99" fill="none" stroke="rgb(255, 255, 255)" stroke-width="0.42" stroke-miterlimit="10" stroke-dasharray="0 0"/><path d="M 22.33,57.7 L 22.33,61.01 L 25.65,61.01" fill="rgb(2, 112, 159)"  stroke-width="0.42" stroke-miterlimit="10" stroke-dasharray="0 0"/><path d="M 22.33,57.7 L 22.33,61.01 L 25.65,61.01" fill="none" stroke="rgb(255, 255, 255)" stroke-width="0.42" stroke-miterlimit="10" stroke-dasharray="0 0"/><path d="M 27.01,57.7 L 27.01,61.01 L 30.32,61.01" fill="rgb(2, 112, 159)"  stroke-width="0.42" stroke-miterlimit="10" stroke-dasharray="0 0"/><path d="M 27.01,57.7 L 27.01,61.01 L 30.32,61.01" fill="none" stroke="rgb(255, 255, 255)" stroke-width="0.42" stroke-miterlimit="10" stroke-dasharray="0 0"/><path d="M 13.07,57.77 L 13.07,61.09 L 16.38,61.09" fill="rgb(2, 112, 159)"  stroke-width="0.42" stroke-miterlimit="10" stroke-dasharray="0 0"/><path d="M 13.07,57.77 L 13.07,61.09 L 16.38,61.09" fill="none" stroke="rgb(255, 255, 255)" stroke-width="0.42" stroke-miterlimit="10" stroke-dasharray="0 0"/><path d="M 17.66,57.77 L 17.66,61.09 L 20.98,61.09" fill="rgb(2, 112, 159)"  stroke-width="0.42" stroke-miterlimit="10" stroke-dasharray="0 0"/><path d="M 17.66,57.77 L 17.66,61.09 L 20.98,61.09" fill="none" stroke="rgb(255, 255, 255)" stroke-width="0.42" stroke-miterlimit="10" stroke-dasharray="0 0"/><path d="M 35.22,22.82 L 35.22,26.14 L 38.53,26.14" fill="rgb(2, 112, 159)"  stroke-width="0.42" stroke-miterlimit="10" stroke-dasharray="0 0"/><path d="M 35.22,22.82 L 35.22,26.14 L 38.53,26.14" fill="none" stroke="rgb(255, 255, 255)" stroke-width="0.42" stroke-miterlimit="10" stroke-dasharray="0 0"/><path d="M 39.81,22.82 L 39.81,26.14 L 43.13,26.14" fill="rgb(2, 112, 159)"  stroke-width="0.42" stroke-miterlimit="10" stroke-dasharray="0 0"/><path d="M 39.81,22.82 L 39.81,26.14 L 43.13,26.14" fill="none" stroke="rgb(255, 255, 255)" stroke-width="0.42" stroke-miterlimit="10" stroke-dasharray="0 0"/><path d="M 35.14,29.07 L 35.14,32.38 L 38.46,32.38" fill="rgb(2, 112, 159)"  stroke-width="0.42" stroke-miterlimit="10" stroke-dasharray="0 0"/><path d="M 35.14,29.07 L 35.14,32.38 L 38.46,32.38" fill="none" stroke="rgb(255, 255, 255)" stroke-width="0.42" stroke-miterlimit="10" stroke-dasharray="0 0"/><path d="M 39.74,29.07 L 39.74,32.38 L 43.05,32.38" fill="rgb(2, 112, 159)"  stroke-width="0.42" stroke-miterlimit="10" stroke-dasharray="0 0"/><path d="M 39.74,29.07 L 39.74,32.38 L 43.05,32.38" fill="none" stroke="rgb(255, 255, 255)" stroke-width="0.42" stroke-miterlimit="10" stroke-dasharray="0 0"/><path d="M 35.14,34.72 L 35.14,38.05 L 38.46,38.05" fill="rgb(2, 112, 159)"  stroke-width="0.42" stroke-miterlimit="10" stroke-dasharray="0 0"/><path d="M 35.14,34.72 L 35.14,38.05 L 38.46,38.05" fill="none" stroke="rgb(255, 255, 255)" stroke-width="0.42" stroke-miterlimit="10" stroke-dasharray="0 0"/><path d="M 39.74,34.72 L 39.74,38.05 L 43.05,38.05" fill="rgb(2, 112, 159)"  stroke-width="0.42" stroke-miterlimit="10" stroke-dasharray="0 0"/><path d="M 39.74,34.72 L 39.74,38.05 L 43.05,38.05" fill="none" stroke="rgb(255, 255, 255)" stroke-width="0.42" stroke-miterlimit="10" stroke-dasharray="0 0"/><path d="M 2,50.92 L 2,54.23 L 5.31,54.23" fill="rgb(2, 112, 159)"  stroke-width="0.42" stroke-miterlimit="10" stroke-dasharray="0 0"/><path d="M 2,50.92 L 2,54.23 L 5.31,54.23" fill="none" stroke="rgb(255, 255, 255)" stroke-width="0.42" stroke-miterlimit="10" stroke-dasharray="0 0"/><path d="M 6.59,50.92 L 6.59,54.23 L 9.91,54.23" fill="rgb(2, 112, 159)"  stroke-width="0.42" stroke-miterlimit="10" stroke-dasharray="0 0"/><path d="M 6.59,50.92 L 6.59,54.23 L 9.91,54.23" fill="none" stroke="rgb(255, 255, 255)" stroke-width="0.42" stroke-miterlimit="10" stroke-dasharray="0 0"/><path d="M 2.23,57.18 L 2.23,60.49 L 5.54,60.49" fill="rgb(2, 112, 159)"  stroke-width="0.42" stroke-miterlimit="10" stroke-dasharray="0 0"/><path d="M 2.23,57.18 L 2.23,60.49 L 5.54,60.49" fill="none" stroke="rgb(255, 255, 255)" stroke-width="0.42" stroke-miterlimit="10" stroke-dasharray="0 0"/><path d="M 6.81,57.18 L 6.81,60.49 L 10.14,60.49" fill="rgb(2, 112, 159)"  stroke-width="0.42" stroke-miterlimit="10" stroke-dasharray="0 0"/><path d="M 6.81,57.18 L 6.81,60.49 L 10.14,60.49" fill="none" stroke="rgb(255, 255, 255)" stroke-width="0.42" stroke-miterlimit="10" stroke-dasharray="0 0"/><path d="M 2.23,62.75 L 2.23,66.06 L 5.54,66.06" fill="rgb(2, 112, 159)"  stroke-width="0.42" stroke-miterlimit="10" stroke-dasharray="0 0"/><path d="M 2.23,62.75 L 2.23,66.06 L 5.54,66.06" fill="none" stroke="rgb(255, 255, 255)" stroke-width="0.42" stroke-miterlimit="10" stroke-dasharray="0 0"/><path d="M 6.81,62.75 L 6.81,66.06 L 10.14,66.06" fill="rgb(2, 112, 159)"  stroke-width="0.42" stroke-miterlimit="10" stroke-dasharray="0 0"/><path d="M 6.81,62.75 L 6.81,66.06 L 10.14,66.06" fill="none" stroke="rgb(255, 255, 255)" stroke-width="0.42" stroke-miterlimit="10" stroke-dasharray="0 0"/><path d="M 22.49,12.35 L 22.49,15.66 L 25.8,15.66" fill="rgb(2, 112, 159)"  stroke-width="0.42" stroke-miterlimit="10" stroke-dasharray="0 0"/><path d="M 22.49,12.35 L 22.49,15.66 L 25.8,15.66" fill="none" stroke="rgb(255, 255, 255)" stroke-width="0.42" stroke-miterlimit="10" stroke-dasharray="0 0"/><path d="M 27.16,12.35 L 27.16,15.66 L 30.47,15.66" fill="rgb(2, 112, 159)"  stroke-width="0.42" stroke-miterlimit="10" stroke-dasharray="0 0"/><path d="M 27.16,12.35 L 27.16,15.66 L 30.47,15.66" fill="none" stroke="rgb(255, 255, 255)" stroke-width="0.42" stroke-miterlimit="10" stroke-dasharray="0 0"/><path d="M 13.14,12.43 L 13.14,15.74 L 16.46,15.74" fill="rgb(2, 112, 159)"  stroke-width="0.42" stroke-miterlimit="10" stroke-dasharray="0 0"/><path d="M 13.14,12.43 L 13.14,15.74 L 16.46,15.74" fill="none" stroke="rgb(255, 255, 255)" stroke-width="0.42" stroke-miterlimit="10" stroke-dasharray="0 0"/><path d="M 17.82,12.43 L 17.82,15.74 L 21.13,15.74" fill="rgb(2, 112, 159)"  stroke-width="0.42" stroke-miterlimit="10" stroke-dasharray="0 0"/><path d="M 17.82,12.43 L 17.82,15.74 L 21.13,15.74" fill="none" stroke="rgb(255, 255, 255)" stroke-width="0.42" stroke-miterlimit="10" stroke-dasharray="0 0"/><path d="M 22.49,19.28 L 22.49,22.6 L 25.8,22.6" fill="rgb(2, 112, 159)"  stroke-width="0.42" stroke-miterlimit="10" stroke-dasharray="0 0"/><path d="M 22.49,19.28 L 22.49,22.6 L 25.8,22.6" fill="none" stroke="rgb(255, 255, 255)" stroke-width="0.42" stroke-miterlimit="10" stroke-dasharray="0 0"/><path d="M 27.08,19.28 L 27.08,22.6 L 30.4,22.6" fill="rgb(2, 112, 159)"  stroke-width="0.42" stroke-miterlimit="10" stroke-dasharray="0 0"/><path d="M 27.08,19.28 L 27.08,22.6 L 30.4,22.6" fill="none" stroke="rgb(255, 255, 255)" stroke-width="0.42" stroke-miterlimit="10" stroke-dasharray="0 0"/><path d="M 13.14,19.36 L 13.14,22.67 L 16.46,22.67" fill="rgb(2, 112, 159)"  stroke-width="0.42" stroke-miterlimit="10" stroke-dasharray="0 0"/><path d="M 13.14,19.36 L 13.14,22.67 L 16.46,22.67" fill="none" stroke="rgb(255, 255, 255)" stroke-width="0.42" stroke-miterlimit="10" stroke-dasharray="0 0"/><path d="M 17.74,19.36 L 17.74,22.67 L 21.05,22.67" fill="rgb(2, 112, 159)"  stroke-width="0.42" stroke-miterlimit="10" stroke-dasharray="0 0"/><path d="M 17.74,19.36 L 17.74,22.67 L 21.05,22.67" fill="none" stroke="rgb(255, 255, 255)" stroke-width="0.42" stroke-miterlimit="10" stroke-dasharray="0 0"/><path d="M 22.49,25.91 L 22.49,29.22 L 25.8,29.22" fill="rgb(2, 112, 159)"  stroke-width="0.42" stroke-miterlimit="10" stroke-dasharray="0 0"/><path d="M 22.49,25.91 L 22.49,29.22 L 25.8,29.22" fill="none" stroke="rgb(255, 255, 255)" stroke-width="0.42" stroke-miterlimit="10" stroke-dasharray="0 0"/><path d="M 27.08,25.91 L 27.08,29.22 L 30.4,29.22" fill="rgb(2, 112, 159)"  stroke-width="0.42" stroke-miterlimit="10" stroke-dasharray="0 0"/><path d="M 27.08,25.91 L 27.08,29.22 L 30.4,29.22" fill="none" stroke="rgb(255, 255, 255)" stroke-width="0.42" stroke-miterlimit="10" stroke-dasharray="0 0"/><path d="M 13.14,25.99 L 13.14,29.3 L 16.46,29.3" fill="rgb(2, 112, 159)"  stroke-width="0.42" stroke-miterlimit="10" stroke-dasharray="0 0"/><path d="M 13.14,25.99 L 13.14,29.3 L 16.46,29.3" fill="none" stroke="rgb(255, 255, 255)" stroke-width="0.42" stroke-miterlimit="10" stroke-dasharray="0 0"/><path d="M 17.74,25.99 L 17.74,29.3 L 21.05,29.3" fill="rgb(2, 112, 159)"  stroke-width="0.42" stroke-miterlimit="10" stroke-dasharray="0 0"/><path d="M 17.74,25.99 L 17.74,29.3 L 21.05,29.3" fill="none" stroke="rgb(255, 255, 255)" stroke-width="0.42" stroke-miterlimit="10" stroke-dasharray="0 0"/><path d="M 22.49,32.02 L 22.49,35.33 L 25.8,35.33" fill="rgb(2, 112, 159)"  stroke-width="0.42" stroke-miterlimit="10" stroke-dasharray="0 0"/><path d="M 22.49,32.02 L 22.49,35.33 L 25.8,35.33" fill="none" stroke="rgb(255, 255, 255)" stroke-width="0.42" stroke-miterlimit="10" stroke-dasharray="0 0"/><path d="M 27.08,32.02 L 27.08,35.33 L 30.4,35.33" fill="rgb(2, 112, 159)"  stroke-width="0.42" stroke-miterlimit="10" stroke-dasharray="0 0"/><path d="M 27.08,32.02 L 27.08,35.33 L 30.4,35.33" fill="none" stroke="rgb(255, 255, 255)" stroke-width="0.42" stroke-miterlimit="10" stroke-dasharray="0 0"/><path d="M 13.14,32.09 L 13.14,35.4 L 16.46,35.4" fill="rgb(2, 112, 159)"  stroke-width="0.42" stroke-miterlimit="10" stroke-dasharray="0 0"/><path d="M 13.14,32.09 L 13.14,35.4 L 16.46,35.4" fill="none" stroke="rgb(255, 255, 255)" stroke-width="0.42" stroke-miterlimit="10" stroke-dasharray="0 0"/><path d="M 17.74,32.09 L 17.74,35.4 L 21.05,35.4" fill="rgb(2, 112, 159)"  stroke-width="0.42" stroke-miterlimit="10" stroke-dasharray="0 0"/><path d="M 17.74,32.09 L 17.74,35.4 L 21.05,35.4" fill="none" stroke="rgb(255, 255, 255)" stroke-width="0.42" stroke-miterlimit="10" stroke-dasharray="0 0"/><path d="M 35.07,40.6 L 35.07,43.91" fill="none"  stroke-width="0.42" stroke-miterlimit="10" stroke-dasharray="0 0"/><path d="M 35.07,40.6 L 35.07,43.91" fill="none" stroke="rgb(255, 255, 255)" stroke-width="0.42" stroke-miterlimit="10" stroke-dasharray="0 0"/><path d="M 35.07,43.91 L 38.38,43.91" fill="none"  stroke-width="0.42" stroke-miterlimit="10" stroke-dasharray="0 0"/><path d="M 35.07,43.91 L 38.38,43.91" fill="none" stroke="rgb(255, 255, 255)" stroke-width="0.42" stroke-miterlimit="10" stroke-dasharray="0 0"/><path d="M 39.74,40.6 L 39.74,43.91 L 43.05,43.91" fill="rgb(2, 112, 159)"  stroke-width="0.42" stroke-miterlimit="10" stroke-dasharray="0 0"/><path d="M 39.74,40.6 L 39.74,43.91 L 43.05,43.91" fill="none" stroke="rgb(255, 255, 255)" stroke-width="0.42" stroke-miterlimit="10" stroke-dasharray="0 0"/><path d="M 35.07,46.32 L 35.07,49.64" fill="none"  stroke-width="0.42" stroke-miterlimit="10" stroke-dasharray="0 0"/><path d="M 35.07,46.32 L 35.07,49.64" fill="none" stroke="rgb(255, 255, 255)" stroke-width="0.42" stroke-miterlimit="10" stroke-dasharray="0 0"/><path d="M 35.07,49.64 L 38.38,49.64" fill="none"  stroke-width="0.42" stroke-miterlimit="10" stroke-dasharray="0 0"/><path d="M 35.07,49.64 L 38.38,49.64" fill="none" stroke="rgb(255, 255, 255)" stroke-width="0.42" stroke-miterlimit="10" stroke-dasharray="0 0"/><path d="M 39.74,46.32 L 39.74,49.64 L 43.05,49.64" fill="rgb(2, 112, 159)"  stroke-width="0.42" stroke-miterlimit="10" stroke-dasharray="0 0"/><path d="M 39.74,46.32 L 39.74,49.64 L 43.05,49.64" fill="none" stroke="rgb(255, 255, 255)" stroke-width="0.42" stroke-miterlimit="10" stroke-dasharray="0 0"/></g><g transform="translate(450.85499999999996, 370) rotate(0, 25.93, 0)" width="51.86" height="92"><text text-decoration="none" x="0.004998855590820028" fill="#656565" font-size="10pt" font-family="noto_regular"  y="14.40000057220459">Building&#160;</text><text text-decoration="none" x="2.4299999999999997" fill="#656565" font-size="10pt" font-family="noto_regular"  y="32.80000019073486">Energy,&#160;</text><text text-decoration="none" x="5.405000381469726" fill="#656565" font-size="10pt" font-family="noto_regular"  y="51.19999980926514">Water,&#160;</text><text text-decoration="none" x="0.4487489986419675" fill="#656565" font-size="10pt" font-family="noto_regular"  y="69.59999942779541">and&#160;</text><text text-decoration="none" x="27.83625023841858" fill="#656565" font-size="10pt" font-family="noto_regular"  y="69.59999942779541">Gas</text><text text-decoration="none" x="51.41125100135803" fill="#4b4b4b" font-size="10pt" font-family="noto_regular"  y="69.59999942779541"></text></g></g><g id="L1JWZAPoGCM"><g><path d="M 610,320 L 504,320" fill="none" stroke="#7E7E7E" stroke-width="2" stroke-linecap="round" stroke-linejoin="round" stroke-dasharray="0 0"/><path d="M 610,320 L 601.304347826087,314.25 L 601.304347826087,325.75 Z" fill="rgb(126,126,126)" stroke="#7E7E7E" stroke-width="2" stroke-linecap="round" stroke-linejoin="round"/></g></g><g id="27eDf2JsL2i"><g transform="translate(610 280)"><rect x="0" y="0" width="60.38" height="80" fill="rgba(255,255,255,0.01)" stroke="rgba(255,255,255,0.01)"  stroke-dasharray="0 0"/><path d="M 44.8,45.34 C 38.78,45.34 32.54,44.18000000000001 29.22,41.63 L 29.22,73 C 29.22,76.89 36.22,80 44.8,80 C 53.379999999999995,80 60.379999999999995,76.89 60.379999999999995,73 L 60.379999999999995,41.66 C 57.06,43.98 50.82,45.34 44.8,45.34 L 44.8,45.34 Z" fill="rgb(42, 50, 130)" stroke="rgba(255,255,255,0.01)"  stroke-dasharray="0 0"/><path d="M 60.38,37.37 C 60.38,34.25 53.38,31.729999999999997 44.800000000000004,31.729999999999997 C 36.220000000000006,31.729999999999997 29.220000000000006,34.25 29.220000000000006,37.37 C 29.220000000000006,40.489999999999995 36.23,43 44.8,43 C 53.37,43 60.38,40.48 60.38,37.37 L 60.38,37.37 Z" fill="rgb(42, 50, 130)" stroke="rgba(255,255,255,0.01)"  stroke-dasharray="0 0"/><path d="M 25.31,60.54 L 25.31,41.46 L 25.31,37.96 L 25.31,37.37 C 25.31,32.12 31.54,29.18 38.93,28.229999999999997 L 38.93,3.89 C 38.93,1.75 37.18,0 35.04,0 L 3.89,0 C 1.75,0 0,1.75 0,3.89 L 0,79.82000000000001 L 29.61,79.82000000000001 C 26.88,77.87 25.34,75.55000000000001 25.34,72.82000000000001 L 25.34,72.05000000000001 L 5.86,72.05000000000001 L 5.86,68.16000000000001 L 25.32,68.16000000000001 L 25.32,64.27000000000001 L 5.86,64.27000000000001 L 5.86,60.38000000000001 L 25.32,60.38000000000001 L 25.32,60.540000000000006 L 25.31,60.540000000000006 Z M 5.84,11.87 L 33.11,11.87 L 33.11,15.76 L 5.84,15.76 L 5.84,11.87 Z" fill="rgb(42, 50, 130)" stroke="rgba(255,255,255,0.01)"  stroke-dasharray="0 0"/></g><g transform="translate(611.7600000000001, 370) rotate(0, 28.43, 0)" width="56.86" height="54.01"><text text-decoration="none" x="14.8675" fill="#656565" font-size="10pt" font-family="noto_regular"  y="14.40000057220459">EWS&#160;</text><text text-decoration="none" x="0.004998855590820028" fill="#656565" font-size="10pt" font-family="noto_regular"  y="32.80000019073486">SkySpark&#160;</text><text text-decoration="none" x="1.22374885559082" fill="#656565" font-size="10pt" font-family="noto_regular"  y="51.19999980926514">Platform</text><text text-decoration="none" x="55.63625114440918" fill="#4b4b4b" font-size="10pt" font-family="noto_regular"  y="51.19999980926514"></text></g></g><g id="rv8ZRJQl9KO"><g transform="translate(750 280)"><rect x="0" y="0" width="60.38" height="80" fill="rgba(255,255,255,0.01)" stroke="rgba(255,255,255,0.01)"  stroke-dasharray="0 0"/><path d="M 44.8,45.34 C 38.78,45.34 32.54,44.18000000000001 29.22,41.63 L 29.22,73 C 29.22,76.89 36.22,80 44.8,80 C 53.379999999999995,80 60.379999999999995,76.89 60.379999999999995,73 L 60.379999999999995,41.66 C 57.06,43.98 50.82,45.34 44.8,45.34 L 44.8,45.34 Z" fill="rgb(42, 50, 130)" stroke="rgba(255,255,255,0.01)"  stroke-dasharray="0 0"/><path d="M 60.38,37.37 C 60.38,34.25 53.38,31.729999999999997 44.800000000000004,31.729999999999997 C 36.220000000000006,31.729999999999997 29.220000000000006,34.25 29.220000000000006,37.37 C 29.220000000000006,40.489999999999995 36.23,43 44.8,43 C 53.37,43 60.38,40.48 60.38,37.37 L 60.38,37.37 Z" fill="rgb(42, 50, 130)" stroke="rgba(255,255,255,0.01)"  stroke-dasharray="0 0"/><path d="M 25.31,60.54 L 25.31,41.46 L 25.31,37.96 L 25.31,37.37 C 25.31,32.12 31.54,29.18 38.93,28.229999999999997 L 38.93,3.89 C 38.93,1.75 37.18,0 35.04,0 L 3.89,0 C 1.75,0 0,1.75 0,3.89 L 0,79.82000000000001 L 29.61,79.82000000000001 C 26.88,77.87 25.34,75.55000000000001 25.34,72.82000000000001 L 25.34,72.05000000000001 L 5.86,72.05000000000001 L 5.86,68.16000000000001 L 25.32,68.16000000000001 L 25.32,64.27000000000001 L 5.86,64.27000000000001 L 5.86,60.38000000000001 L 25.32,60.38000000000001 L 25.32,60.540000000000006 L 25.31,60.540000000000006 Z M 5.84,11.87 L 33.11,11.87 L 33.11,15.76 L 5.84,15.76 L 5.84,11.87 Z" fill="rgb(42, 50, 130)" stroke="rgba(255,255,255,0.01)"  stroke-dasharray="0 0"/></g><g transform="translate(752.955625, 370) rotate(0, 27.234375, 0)" width="54.46875" height="36"><text text-decoration="none" x="14.003125190734863" fill="#656565" font-size="10pt" font-family="noto_regular"  y="14.40000057220459">UDL&#160;</text><text text-decoration="none" x="0.003124237060546875" fill="#656565" font-size="10pt" font-family="noto_regular"  y="32.80000019073486">InfluxDB</text><text text-decoration="none" x="54.46562576293945" fill="#4b4b4b" font-size="10pt" font-family="noto_regular"  y="32.80000019073486"></text></g></g><g id="cSWK1kNl8px"><g><path d="M 670,320 L 750,320" fill="none" stroke="#7E7E7E" stroke-width="2" stroke-linecap="round" stroke-linejoin="round" stroke-dasharray="0 0"/><path d="M 750,320 L 741.304347826087,314.25 L 741.304347826087,325.75 Z" fill="rgb(126,126,126)" stroke="#7E7E7E" stroke-width="2" stroke-linecap="round" stroke-linejoin="round"/></g></g><g id="yp4SRq4YHKt"><g transform="translate(930 200)"><path d="M 60,0 L 0,40 L 60,80 L 120,40 L 60,0 Z" fill="rgb(255,255,255)" stroke="#4b4b4b" stroke-width="2" stroke-linecap="round" stroke-linejoin="round" stroke-dasharray="0 0"/></g><g transform="translate(959.734375, 222) rotate(0, 30.265625, 18)" width="60.53125" height="36"><text text-decoration="none" x="2.765625" fill="#656565" font-size="10pt" font-family="noto_regular"  y="14.40000057220459">Anomaly&#160;</text><text text-decoration="none" x="0.003124237060546875" fill="#656565" font-size="10pt" font-family="noto_regular"  y="32.80000019073486">Detection</text><text text-decoration="none" x="60.52812576293945" fill="#4b4b4b" font-size="10pt" font-family="noto_regular"  y="32.80000019073486"></text></g></g><g id="pFS4FXTBnsm"><g transform="translate(1010 310)"><path d="M 20,40 L 20,40 L 20,40 A 20 20 0 0 1 0 20.000000000000004 L 0,20 L 0,20.000000000000004 A 20 20 0 0 1 20 0 L 90.00000000000001,0 L 90.00000000000001,0 L 90.00000000000001,0 A 20 20 0 0 1 110.00000000000001 20 L 110.00000000000001,20 L 110.00000000000001,20 A 20 20 0 0 1 90.00000000000001 40 L 20,40 Z" fill="rgb(255,255,255)" stroke="#D94753" stroke-width="2" stroke-linecap="round" stroke-linejoin="round" stroke-dasharray="0 0"/></g><g transform="translate(1054.27, 321) rotate(0, 10.73, 9)" width="21.46" height="18"><text text-decoration="none" x="0.004999618530273864" fill="#D94753" font-size="10pt" font-family="noto_regular"  y="14.40000057220459">Yes</text><text text-decoration="none" x="21.455000381469727" fill="#4b4b4b" font-size="10pt" font-family="noto_regular"  y="14.40000057220459"></text></g></g><g id="Q7mMlOXqM8O"><g transform="translate(870 430)"><rect x="0" y="0" width="90.00000000000001" height="90.00000000000001" fill="rgba(255,255,255,0.01)" stroke="rgba(255,255,255,0.01)"  stroke-dasharray="0 0"/><path d="M 0.6250000000000001,0.6250000000000001 L 40.62500000000001,0.6250000000000001 L 40.62500000000001,50.62500000000001 L 0.6250000000000001,50.62500000000001 Z" fill="rgb(78, 105, 177)" stroke="rgba(255,255,255,0.01)"  stroke-dasharray="0 0"/><path d="M 41.25000000000001,51.25000000000001 L 0,51.25000000000001 L 0,0 L 41.25000000000001,0 Z M 1.2500000000000002,50.00000000000001 L 40.00000000000001,50.00000000000001 L 40.00000000000001,1.2500000000000002 L 1.2500000000000002,1.2500000000000002 Z" fill="rgb(56, 87, 158)" stroke="rgba(255,255,255,0.01)"  stroke-dasharray="0 0"/><path d="M 0.6250000000000001,60.625000000000014 L 40.62500000000001,60.625000000000014 L 40.62500000000001,90.62500000000001 L 0.6250000000000001,90.62500000000001 Z" fill="rgb(60, 191, 187)" stroke="rgba(255,255,255,0.01)"  stroke-dasharray="0 0"/><path d="M 41.25000000000001,91.25000000000001 L 0,91.25000000000001 L 0,60.000000000000014 L 41.25000000000001,60.000000000000014 Z M 1.2500000000000002,90.00000000000001 L 40.00000000000001,90.00000000000001 L 40.00000000000001,61.250000000000014 L 1.2500000000000002,61.250000000000014 Z" fill="rgb(43, 160, 154)" stroke="rgba(255,255,255,0.01)"  stroke-dasharray="0 0"/><path d="M 50.62500000000001,40.62500000000001 L 90.62500000000001,40.62500000000001 L 90.62500000000001,90.62500000000001 L 50.62500000000001,90.62500000000001 Z" fill="rgb(158, 196, 53)" stroke="rgba(255,255,255,0.01)"  stroke-dasharray="0 0"/><path d="M 91.25000000000001,91.25000000000001 L 50.00000000000001,91.25000000000001 L 50.00000000000001,40.00000000000001 L 91.25000000000001,40.00000000000001 Z M 51.25000000000001,90.00000000000001 L 90.00000000000001,90.00000000000001 L 90.00000000000001,41.25000000000001 L 51.25000000000001,41.25000000000001 Z" fill="rgb(133, 170, 45)" stroke="rgba(255,255,255,0.01)"  stroke-dasharray="0 0"/><path d="M 50.62500000000001,0.6250000000000001 L 90.62500000000001,0.6250000000000001 L 90.62500000000001,30.625000000000007 L 50.62500000000001,30.625000000000007 Z" fill="rgb(229, 80, 76)" stroke="rgba(255,255,255,0.01)"  stroke-dasharray="0 0"/><path d="M 91.25000000000001,31.250000000000007 L 50.00000000000001,31.250000000000007 L 50.00000000000001,0 L 91.25000000000001,0 Z M 51.25000000000001,30.000000000000007 L 90.00000000000001,30.000000000000007 L 90.00000000000001,1.2500000000000002 L 51.25000000000001,1.2500000000000002 Z" fill="rgb(217, 71, 83)" stroke="rgba(255,255,255,0.01)"  stroke-dasharray="0 0"/></g><g transform="translate(880.3515625, 530) rotate(0, 34.6484375, 0)" width="69.296875" height="18"><text text-decoration="none" x="0.004688262939453125" fill="#656565" font-size="10pt" font-family="noto_regular"  y="14.40000057220459">Dashboard</text><text text-decoration="none" x="69.29218673706055" fill="#4b4b4b" font-size="10pt" font-family="noto_regular"  y="14.40000057220459"></text></g></g><g id="vbpO5nXTC8f"><g transform="translate(1030 430)"><rect x="0" y="0" width="70" height="85.3125" fill="rgba(255,255,255,0.01)" stroke="rgba(255,255,255,0.01)"  stroke-dasharray="0 0"/><path d="M 35.546875,85.859375 C 40.37936656101944,85.859375 44.296875,81.94186656101944 44.296875,77.109375 L 26.796875,77.109375 C 26.796875,81.94186656101944 30.71438343898056,85.859375 35.546875,85.859375 Z M 61.796875,59.609375 L 61.796875,37.734375 C 61.796875,24.390625 54.578125,13.015624999999998 42.109375,10.171875 L 42.109375,7.109375 C 42.109375,2.057560144590775 36.640625,-1.0998241400399904 32.265625,1.4260832876646212 C 30.235180433772324,2.5983610045507826 28.984375,4.7648195662276756 28.984375,7.109375 L 28.984375,10.171875 C 16.515625,13.234375000000002 9.296875,24.390625 9.296875,37.734375 L 9.296875,59.609375 L 0.546875,68.359375 L 0.546875,72.734375 L 70.546875,72.734375 L 70.546875,68.359375 Z" fill="rgb(229, 81, 76)" stroke="rgba(255,255,255,0.01)"  stroke-dasharray="0 0"/><path d="M 35.546875,86.40625 C 30.417343162720538,86.3942223441556 26.262027087345846,82.23890683861244 26.25,77.109375 L 26.25,76.5625 L 44.84375,76.5625 L 44.84375,77.109375 C 44.83172291265415,82.23890683861244 40.67640683727946,86.3942223441556 35.546875,86.40625 Z M 27.365624999999998,77.65625 C 27.826482948139756,83.95417918624604 34.93222749909597,87.39149156728219 40.15596519155062,83.84341228353416 C 42.22941125168194,82.43508142064509 43.54519772587006,80.15607239289501 43.728125000000006,77.65625 Z M 71.115625,73.28125 L 0,73.28125 L 0,68.140625 L 8.75,59.390625 L 8.75,37.734375 C 8.75,23.821875000000002 16.471875,12.884374999999999 28.4375,9.75625 L 28.4375,7.109375 C 28.4375,1.6365755733066731 34.36197916666667,-1.783924068376657 39.1015625,0.952475644970006 C 41.301210780079984,2.222443171596681 42.65625,4.569439946746649 42.65625,7.109375 L 42.65625,9.734375 C 54.621874999999996,12.687500000000002 62.34375,23.625 62.34375,37.734375 L 62.34375,59.390625 L 71.09375,68.140625 Z M 1.09375,72.1875 L 70,72.1875 L 70,68.578125 L 61.25,59.828125 L 61.25,37.734375 C 61.25,24.0625 53.68125,13.365625000000001 41.978125000000006,10.696874999999999 L 41.5625,10.696874999999999 L 41.5625,7.109375 C 41.5625,2.478544715874879 36.549479166666664,-0.41572421170332474 32.5390625,1.8996909303592355 C 30.67782164762463,2.974278837504883 29.53125,4.960199185708703 29.53125,7.109375 L 29.53125,10.609375 L 29.115625,10.609375 C 17.5,13.584375 9.84375,24.19375 9.84375,37.734375 L 9.84375,59.828125 L 1.09375,68.578125 Z" fill="rgb(217, 71, 84)" stroke="rgba(255,255,255,0.01)"  stroke-dasharray="0 0"/></g><g transform="translate(1028.545, 525.3125) rotate(0, 36.455, 0)" width="72.91" height="36.01"><text text-decoration="none" x="20.81750019073486" fill="#656565" font-size="10pt" font-family="noto_regular"  y="14.40000057220459">Send&#160;</text><text text-decoration="none" x="0.01124771118163892" fill="#656565" font-size="10pt" font-family="noto_regular"  y="32.80000019073486">Notification</text><text text-decoration="none" x="72.89875228881836" fill="#4b4b4b" font-size="10pt" font-family="noto_regular"  y="32.80000019073486"></text></g></g><g id="05Fx1yUzCSz"><g><path d="M 810,320 L 820,320 Q 830,320 830,310 L 830,250 L 830,189 Q 830,179 840,179 L 910,179 L 980,179 Q 990,179 990,189 L 990,200" fill="none" stroke="#7E7E7E" stroke-width="2" stroke-linecap="round" stroke-linejoin="round" stroke-dasharray="0 0"/><path d="M 990,200 L 995.75,191.30434782608697 L 984.25,191.30434782608697 Z" fill="rgb(126,126,126)" stroke="#7E7E7E" stroke-width="2" stroke-linecap="round" stroke-linejoin="round"/></g></g><g id="srUSzxBNrWa"><g transform="translate(860 310)"><path d="M 20,40 L 20,40 L 20,40 A 20 20 0 0 1 0 20.000000000000004 L 0,20 L 0,20.000000000000004 A 20 20 0 0 1 20 0 L 90.00000000000001,0 L 90.00000000000001,0 L 90.00000000000001,0 A 20 20 0 0 1 110.00000000000001 20 L 110.00000000000001,20 L 110.00000000000001,20 A 20 20 0 0 1 90.00000000000001 40 L 20,40 Z" fill="rgb(255,255,255)" stroke="#43A047" stroke-width="2" stroke-linecap="round" stroke-linejoin="round" stroke-dasharray="0 0"/></g><g transform="translate(905.895, 321) rotate(0, 9.105, 9)" width="18.21" height="18"><text text-decoration="none" x="0.004999618530273864" fill="#43A047" font-size="10pt" font-family="noto_regular"  y="14.40000057220459">No</text><text text-decoration="none" x="18.205000381469727" fill="#4b4b4b" font-size="10pt" font-family="noto_regular"  y="14.40000057220459"></text></g></g><g id="KirY9iRTIyd"><g><path d="M 930,240 L 925,240 Q 915,240 915,250 L 915,310" fill="none" stroke="#7E7E7E" stroke-width="2" stroke-linecap="round" stroke-linejoin="round" stroke-dasharray="0 0"/></g></g><g id="mmPi0L5h2Wr"><g><path d="M 1050,240 L 1055,240 Q 1065,240 1065,250 L 1065,310" fill="none" stroke="#7E7E7E" stroke-width="2" stroke-linecap="round" stroke-linejoin="round" stroke-dasharray="0 0"/></g></g><g id="pMcQQ15HO9t"><g><path d="M 915,350 L 915,430" fill="none" stroke="#7E7E7E" stroke-width="2" stroke-linecap="round" stroke-linejoin="round" stroke-dasharray="0 0"/><path d="M 915,430 L 920.75,421.30434782608694 L 909.25,421.30434782608694 Z" fill="rgb(126,126,126)" stroke="#7E7E7E" stroke-width="2" stroke-linecap="round" stroke-linejoin="round"/></g></g><g id="pYp2yAsgCku"><g><path d="M 1065,350 L 1065,379 Q 1065,389 1055,389 L 990,389 L 925,389 Q 915,389 915,399 L 915,430" fill="none" stroke="#7E7E7E" stroke-width="2" stroke-linecap="round" stroke-linejoin="round" stroke-dasharray="0 0"/></g></g><g id="Rdv76jZzNqs"><g><path d="M 1065,430 L 1065,350" fill="none" stroke="#7E7E7E" stroke-width="2" stroke-linecap="round" stroke-linejoin="round" stroke-dasharray="0 0"/><path d="M 1065,430 L 1070.75,421.30434782608694 L 1059.25,421.30434782608694 Z" fill="rgb(126,126,126)" stroke="#7E7E7E" stroke-width="2" stroke-linecap="round" stroke-linejoin="round"/></g></g></svg>